PathFileType	4	(X/Y/Z)	SUBJ82_3_walk_RCNL2025.trc
DataRate	CameraRate	NumFrames	NumMarkers	Units	OrigDataRate	OrigDataStartFrame	OrigNumFrames
100	100	6	25	mm	100	85	225
Frame#	Time	R_Shoulder			L_Shoulder			C7			J_Notch			R_Elbow			L_Elbow			R_Wrist			L_Wrist			R_Asis			L_Asis			Sacral			Thoracic			Sternum			R_Thigh_Lateral			R_Knee_Lateral			R_Shank_Lateral			R_Ankle_Lateral			R_Heel			R_Toe			L_Thigh_Lateral			L_Knee_Lateral			L_Shank_Lateral			L_Ankle_Lateral			L_Heel			L_Toe		
		X1	Y1	Z1	X2	Y2	Z2	X3	Y3	Z3	X4	Y4	Z4	X5	Y5	Z5	X6	Y6	Z6	X7	Y7	Z7	X8	Y8	Z8	X9	Y9	Z9	X10	Y10	Z10	X11	Y11	Z11	X12	Y12	Z12	X13	Y13	Z13	X14	Y14	Z14	X15	Y15	Z15	X16	Y16	Z16	X17	Y17	Z17	X18	Y18	Z18	X19	Y19	Z19	X20	Y20	Z20	X21	Y21	Z21	X22	Y22	Z22	X23	Y23	Z23	X24	Y24	Z24	X25	Y25	Z25
85	0.84000000	-773.439026	1379.688965	483.791077	-754.310608	1393.341431	73.759201	-820.124878	1477.891235	285.633026	-696.018372	1359.728882	284.174194	-793.435730	1049.207031	587.675720	-912.112549	1076.284790	15.914531	-652.201508	829.831482	565.475586	-885.895721	816.015503	32.081352	-739.723022	945.688904	429.188171	-683.579590	957.927612	165.672119	-884.019470	969.606873	237.092087	-912.963745	1243.702148	257.635498	-670.853088	1182.942383	286.655151	-921.740601	544.279968	436.922607	-946.391113	462.002594	382.499146	-1069.532349	264.471680	423.060944	-1141.937622	101.445633	314.553314	-1190.018188	84.603607	269.158173	-1017.475647	44.100636	298.301147	-633.313232	527.086609	108.054642	-597.509949	464.816406	154.695847	-510.154846	251.343842	121.927406	-436.263733	76.536110	191.304840	-466.479095	46.737610	247.594482	-295.769928	106.275841	217.812057
86	0.85000000	-758.562378	1378.789551	483.072662	-738.765991	1391.893188	72.948700	-804.591431	1477.115967	284.649963	-680.577698	1358.779175	283.541901	-779.955750	1048.365845	586.768738	-895.783752	1074.530518	15.143641	-640.387665	827.749268	565.929626	-869.525116	814.593475	31.090796	-723.399353	944.140869	429.237244	-667.003845	957.967407	165.746857	-867.572998	968.814270	236.673859	-897.330017	1242.548218	257.416016	-654.960388	1182.241455	286.326019	-908.344360	544.119873	437.842621	-933.464111	461.876343	383.965668	-1061.279541	267.380280	424.552338	-1138.214966	106.581909	316.112305	-1186.769653	92.134544	270.750153	-1016.580261	44.021717	298.299866	-612.344849	528.849915	107.431007	-578.181458	465.704956	154.444305	-496.153992	250.358368	123.170769	-428.459045	74.179176	192.995651	-460.653290	45.647228	248.987854	-287.743500	98.055878	221.601730
87	0.86000000	-743.551880	1378.297729	482.317871	-723.067627	1390.851685	72.110641	-788.871643	1476.808716	283.623383	-664.978271	1358.309814	282.875275	-766.715088	1047.905029	585.666199	-878.837158	1073.008057	14.264066	-629.184998	825.851532	566.229309	-852.507324	813.325989	29.936211	-706.718018	942.979797	429.106201	-650.424438	958.522583	165.627274	-851.074463	968.481873	236.430740	-881.513062	1241.824341	257.223999	-638.868408	1182.036499	285.913055	-893.944580	544.030029	438.902649	-919.421082	461.821625	385.669678	-1052.048096	270.670166	426.267975	-1133.563354	112.364311	317.916046	-1182.478638	100.633698	272.588715	-1015.493225	44.032932	298.285553	-591.850342	530.960632	106.746147	-559.236328	466.952271	154.070206	-482.820038	249.693100	124.260910	-421.911652	72.070618	194.432205	-456.196716	44.915794	250.104370	-281.061646	89.543495	225.156235
88	0.87000000	-728.409607	1378.221313	481.541504	-707.227722	1390.248413	71.262558	-772.976196	1476.973267	282.578339	-649.235291	1358.325317	282.187134	-753.698547	1047.838135	584.374634	-861.302185	1071.756226	13.293736	-618.589081	824.166016	566.361420	-834.826202	812.210602	28.618860	-689.737305	942.228699	428.781921	-633.899231	959.577393	165.301468	-834.578979	968.602417	236.367249	-865.545105	1241.548706	257.052765	-622.618774	1182.323486	285.418213	-878.383118	543.940247	440.124573	-904.083130	461.773926	387.626526	-1041.641479	274.321503	428.208557	-1127.821655	118.834755	319.963593	-1176.930908	110.120605	274.666931	-1014.134827	44.220840	298.281616	-572.031616	533.319763	106.032860	-540.792847	468.510254	153.594574	-470.026672	249.402924	125.152771	-416.391663	70.330116	195.586044	-452.800598	44.597115	250.908325	-275.538391	81.154427	228.378525
89	0.88000000	-713.141174	1378.560059	480.758545	-691.253357	1390.103760	70.425392	-756.925598	1477.597168	281.539490	-633.369568	1358.812012	281.493469	-740.891602	1048.171387	582.904602	-843.220154	1070.811646	12.246468	-608.590302	822.717804	566.312653	-816.465485	811.255798	27.137843	-672.535034	941.896179	428.261597	-617.485352	961.098206	164.767899	-818.142151	969.152649	236.483032	-849.464600	1241.723145	256.894012	-606.265076	1183.078979	284.850769	-861.519897	543.777222	441.531555	-887.293762	461.666840	389.848511	-1029.869019	278.307526	430.377045	-1120.832153	126.022476	322.255157	-1169.924316	120.585793	276.978027	-1012.387634	44.701717	298.337585	-553.032654	535.829346	105.308998	-522.961792	470.309326	153.035461	-457.712891	249.482025	125.815300	-411.727600	69.012863	196.457977	-450.211609	44.682064	251.395737	-271.024597	73.252228	231.189697
90	0.89000000	-697.757812	1379.303345	479.983337	-675.145325	1390.422852	69.622871	-740.752319	1478.650024	280.529144	-617.407654	1359.737183	280.813721	-728.281799	1048.901733	581.271912	-824.643738	1070.205200	11.130431	-599.172485	821.526550	566.070618	-797.413879	810.487396	25.491507	-655.203064	941.973633	427.552887	-601.235046	963.032410	164.035751	-801.815979	970.094971	236.770447	-833.314148	1242.333008	256.737488	-589.868225	1184.261475	284.228729	-843.248047	543.473083	443.143372	-868.934204	461.440948	392.339905	-1016.562134	282.595886	432.774780	-1112.446411	133.934479	324.787231	-1161.281494	131.980621	279.511871	-1010.087341	45.615147	298.529572	-534.960022	538.388245	104.582382	-505.862732	472.256561	152.411011	-445.898010	249.865265	126.238968	-407.798706	68.114723	197.076965	-448.232422	45.109573	251.594269	-267.397919	66.124031	233.541550
